<svg width="120" height="120" viewBox="0 0 120 120" fill="none" xmlns="http://www.w3.org/2000/svg">
<circle cx="65" cy="47" r="4" fill="#080808"/>
<circle cx="51" cy="44" r="3" fill="#080808"/>
<circle cx="62" cy="38" r="2" fill="#080808"/>
<path d="M22.02 79L17.44 65H20.8L24.78 77.4H23.1L27.26 65H30.26L34.26 77.4H32.64L36.72 65H39.82L35.24 79H31.76L28.22 68.12H29.14L25.5 79H22.02ZM45.948 79.16C44.7213 79.16 43.6413 78.92 42.708 78.44C41.788 77.96 41.0746 77.3067 40.568 76.48C40.0613 75.64 39.808 74.6867 39.808 73.62C39.808 72.54 40.0546 71.5867 40.548 70.76C41.0546 69.92 41.7413 69.2667 42.608 68.8C43.4746 68.32 44.4546 68.08 45.548 68.08C46.6013 68.08 47.548 68.3067 48.388 68.76C49.2413 69.2 49.9146 69.84 50.408 70.68C50.9013 71.5067 51.148 72.5 51.148 73.66C51.148 73.78 51.1413 73.92 51.128 74.08C51.1146 74.2267 51.1013 74.3667 51.088 74.5H42.348V72.68H49.448L48.248 73.22C48.248 72.66 48.1346 72.1733 47.908 71.76C47.6813 71.3467 47.368 71.0267 46.968 70.8C46.568 70.56 46.1013 70.44 45.568 70.44C45.0346 70.44 44.5613 70.56 44.148 70.8C43.748 71.0267 43.4346 71.3533 43.208 71.78C42.9813 72.1933 42.868 72.6867 42.868 73.26V73.74C42.868 74.3267 42.9946 74.8467 43.248 75.3C43.5146 75.74 43.8813 76.08 44.348 76.32C44.828 76.5467 45.388 76.66 46.028 76.66C46.6013 76.66 47.1013 76.5733 47.528 76.4C47.968 76.2267 48.368 75.9667 48.728 75.62L50.388 77.42C49.8946 77.98 49.2746 78.4133 48.528 78.72C47.7813 79.0133 46.9213 79.16 45.948 79.16ZM53.4452 79V65H59.8052C61.3252 65 62.6652 65.2933 63.8252 65.88C64.9852 66.4533 65.8918 67.26 66.5452 68.3C67.1985 69.34 67.5252 70.5733 67.5252 72C67.5252 73.4133 67.1985 74.6467 66.5452 75.7C65.8918 76.74 64.9852 77.5533 63.8252 78.14C62.6652 78.7133 61.3252 79 59.8052 79H53.4452ZM56.6852 76.34H59.6452C60.5785 76.34 61.3852 76.1667 62.0652 75.82C62.7585 75.46 63.2918 74.9533 63.6652 74.3C64.0518 73.6467 64.2452 72.88 64.2452 72C64.2452 71.1067 64.0518 70.34 63.6652 69.7C63.2918 69.0467 62.7585 68.5467 62.0652 68.2C61.3852 67.84 60.5785 67.66 59.6452 67.66H56.6852V76.34ZM69.7486 79V68.24H72.8686V79H69.7486ZM71.3086 66.74C70.7353 66.74 70.2686 66.5733 69.9086 66.24C69.5486 65.9067 69.3686 65.4933 69.3686 65C69.3686 64.5067 69.5486 64.0933 69.9086 63.76C70.2686 63.4267 70.7353 63.26 71.3086 63.26C71.8819 63.26 72.3486 63.42 72.7086 63.74C73.0686 64.0467 73.2486 64.4467 73.2486 64.94C73.2486 65.46 73.0686 65.8933 72.7086 66.24C72.3619 66.5733 71.8953 66.74 71.3086 66.74ZM78.6842 79L74.1642 68.24H77.3842L81.1442 77.5H79.5442L83.4442 68.24H86.4442L81.9042 79H78.6842ZM92.7644 79.16C91.5377 79.16 90.4577 78.92 89.5244 78.44C88.6044 77.96 87.891 77.3067 87.3844 76.48C86.8777 75.64 86.6244 74.6867 86.6244 73.62C86.6244 72.54 86.871 71.5867 87.3644 70.76C87.871 69.92 88.5577 69.2667 89.4244 68.8C90.291 68.32 91.271 68.08 92.3644 68.08C93.4177 68.08 94.3644 68.3067 95.2044 68.76C96.0577 69.2 96.731 69.84 97.2244 70.68C97.7177 71.5067 97.9644 72.5 97.9644 73.66C97.9644 73.78 97.9577 73.92 97.9444 74.08C97.931 74.2267 97.9177 74.3667 97.9044 74.5H89.1644V72.68H96.2644L95.0644 73.22C95.0644 72.66 94.951 72.1733 94.7244 71.76C94.4977 71.3467 94.1844 71.0267 93.7844 70.8C93.3844 70.56 92.9177 70.44 92.3844 70.44C91.851 70.44 91.3777 70.56 90.9644 70.8C90.5644 71.0267 90.251 71.3533 90.0244 71.78C89.7977 72.1933 89.6844 72.6867 89.6844 73.26V73.74C89.6844 74.3267 89.811 74.8467 90.0644 75.3C90.331 75.74 90.6977 76.08 91.1644 76.32C91.6444 76.5467 92.2044 76.66 92.8444 76.66C93.4177 76.66 93.9177 76.5733 94.3444 76.4C94.7844 76.2267 95.1844 75.9667 95.5444 75.62L97.2044 77.42C96.711 77.98 96.091 78.4133 95.3444 78.72C94.5977 79.0133 93.7377 79.16 92.7644 79.16ZM101.222 79.16C100.688 79.16 100.228 78.98 99.8416 78.62C99.4682 78.2467 99.2816 77.7733 99.2816 77.2C99.2816 76.6267 99.4682 76.1667 99.8416 75.82C100.228 75.46 100.688 75.28 101.222 75.28C101.768 75.28 102.228 75.46 102.602 75.82C102.975 76.1667 103.162 76.6267 103.162 77.2C103.162 77.7733 102.975 78.2467 102.602 78.62C102.228 78.98 101.768 79.16 101.222 79.16Z" fill="black"/>
</svg>
