<svg width="90" height="113" viewBox="0 0 90 113" fill="none" xmlns="http://www.w3.org/2000/svg">
<path d="M58.7271 56.633C60.7651 57.199 62.9541 56.033 63.5361 53.942C64.0941 51.882 62.9041 49.718 60.8511 49.136L59.2531 48.686L57.1831 56.17L58.7271 56.633Z" fill="#020063"/>
<path d="M58.211 48.3943L44.57 44.5343C43.722 44.3103 42.87 44.8253 42.636 45.6833L41.424 50.0433C41.186 50.8993 41.648 51.7783 42.517 52.0363L56.158 55.8573L58.211 48.3943Z" fill="#020063"/>
<path d="M70.6083 67.312C72.6363 66.266 73.9963 64.273 74.1823 61.985C74.4353 58.866 72.1213 56.817 68.9943 56.796C65.7233 56.775 65.5643 59.929 64.2383 60.945L70.6083 67.312Z" fill="#020063"/>
<path d="M89.4822 84.0842C89.9272 82.7612 88.2732 81.8922 88.2732 81.8922L78.1692 76.8042C77.4142 76.3722 75.6902 74.7872 75.6902 74.7872L61.6782 60.4372C60.4992 59.3022 59.0322 58.4012 57.3232 57.9262L38.5752 52.6222L27.3082 40.8062C26.4722 40.0322 26.0322 38.7432 26.0322 38.7432L20.3652 23.5382C19.7402 21.2302 16.8672 20.4502 16.8672 20.4502L11.8322 18.8912L0.932172 16.1672C0.932172 16.1672 0.156172 16.0272 0.0191719 16.6542C-0.119828 17.2812 0.605172 17.4342 0.605172 17.4342L11.7612 22.2662C14.2342 23.1002 15.3412 25.8862 15.3412 25.8862L20.6392 44.3561C20.6392 44.3561 21.4022 46.6462 22.6982 47.8332L34.7732 62.0802C34.7732 62.0802 35.9522 63.9962 38.9212 64.9812L63.4882 72.4052L72.5372 80.0262C72.5372 80.0262 73.2492 80.9081 75.3872 81.4511L87.2242 84.8902C88.1212 85.1272 89.1462 85.0822 89.4822 84.0842Z" fill="#020063"/>
<path d="M32.9882 44.4061L34.8752 27.5901C35.4162 25.2611 33.2542 23.2141 33.2542 23.2141L29.5552 19.4601L21.2392 11.9051C21.2392 11.9051 20.6232 11.4141 20.2042 11.9021C19.7862 12.3891 20.3522 12.8671 20.3522 12.8671L27.8952 22.4011C29.6812 24.3051 29.3392 27.2841 29.3392 27.2841L27.5062 36.6071C27.5062 36.6071 27.2212 38.3711 28.7142 40.0331L32.9882 44.4061Z" fill="#020063"/>
<path d="M68.271 30.456C67.815 29.999 64.271 27.598 59.926 27.598C59.442 27.598 58.969 27.627 58.506 27.673L54.668 25.541C54.668 26.571 54.957 27.602 55.211 28.305C52.991 28.901 51.072 29.657 49.408 29.657L45.751 27.37C45.751 29.199 46.665 31.029 46.665 31.029C46.665 31.029 45.751 32.858 45.751 34.687L49.408 32.4C51.072 32.4 52.991 33.156 55.211 33.752C54.957 34.456 54.668 35.486 54.668 36.516L58.505 34.384C58.969 34.429 59.442 34.458 59.926 34.458C64.271 34.458 67.815 32.058 68.271 31.6C68.729 31.142 68.729 30.912 68.271 30.456Z" fill="#020063"/>
<path d="M41.3802 72.6861C40.8672 72.1721 36.8852 69.4751 32.0042 69.4751C31.4582 69.4751 30.9272 69.5071 30.4072 69.5581L26.0952 67.1621C26.0952 68.3191 26.4202 69.4771 26.7052 70.2671C24.2112 70.9361 22.0562 71.7861 20.1852 71.7861L16.0742 69.2171C16.0742 71.2721 17.1022 73.3281 17.1022 73.3281C17.1022 73.3281 16.0742 75.3831 16.0742 77.4381L20.1852 74.8691C22.0552 74.8691 24.2102 75.7191 26.7052 76.3881C26.4202 77.1791 26.0952 78.3371 26.0952 79.4931L30.4072 77.0971C30.9272 77.1481 31.4582 77.1801 32.0042 77.1801C36.8852 77.1801 40.8672 74.4821 41.3802 73.9691C41.8952 73.4571 41.8932 73.1981 41.3802 72.6861Z" fill="#020063"/>
<path d="M80.6254 39.0111C80.3944 38.7791 78.5954 37.5601 76.3904 37.5601C76.1434 37.5601 75.9034 37.5751 75.6674 37.5981L73.7204 36.5151C73.7204 37.0371 73.8664 37.5611 73.9944 37.9181C72.8684 38.2201 71.8944 38.6041 71.0494 38.6041L69.1924 37.4431C69.1924 38.3721 69.6574 39.3001 69.6574 39.3001C69.6574 39.3001 69.1924 40.2291 69.1924 41.1571L71.0494 39.9961C71.8954 39.9961 72.8684 40.3791 73.9944 40.6821C73.8664 41.0391 73.7204 41.5621 73.7204 42.0851L75.6674 41.0021C75.9024 41.0251 76.1434 41.0401 76.3904 41.0401C78.5954 41.0401 80.3944 39.8211 80.6254 39.5891C80.8574 39.3591 80.8574 39.2421 80.6254 39.0111Z" fill="#020063"/>
</svg>
