<svg width="110" height="135" viewBox="0 0 110 135" fill="none" xmlns="http://www.w3.org/2000/svg">
<path d="M17.344 80.0311C19.8323 83.6795 27.371 83.9061 31.153 82.9725C32.8678 82.5506 34.4499 81.8709 35.7702 80.9413C36.0124 80.6795 36.6843 80.8397 36.8561 80.9842C38.6999 82.4959 41.7311 83.242 44.2545 83.3904C47.7115 83.5936 51.5123 82.8631 54.3365 80.8826C54.5787 80.574 55.2506 80.7772 55.4224 80.9217C57.2662 82.4373 60.2974 83.1834 62.8208 83.3319C66.2856 83.535 70.0825 82.8006 72.9028 80.8202C73.5044 80.5155 73.8169 80.7186 73.9887 80.8632C75.8364 82.3788 78.8637 83.121 81.3871 83.2694C85.2699 83.4998 89.5941 82.5702 92.5511 79.8944C93.1722 79.3319 92.3128 78.4061 91.7035 78.9569C89.0004 81.4022 84.9613 82.2069 81.4535 82.0038C79.0082 81.8631 75.8793 81.1639 74.3519 79.4726L74.0863 79.1288C73.848 78.7851 73.3675 78.7851 73.1331 79.0194C72.8831 79.2733 72.387 79.6405 72.0784 79.8476C68.4104 82.3515 62.7542 82.6757 58.7234 81.289C57.407 80.8397 56.157 80.1249 55.5242 79.1952C55.243 78.785 54.8172 78.8748 54.4969 79.16C51.7938 81.5389 47.8016 82.3358 44.3249 82.1288C42.0202 81.996 38.3601 81.2772 36.9538 79.2577C36.6726 78.8515 36.2546 78.9374 35.9304 79.2225C33.2273 81.6053 29.239 82.3984 25.7584 82.1953C23.6334 82.0703 19.7936 81.3827 18.3873 79.3241C17.9147 78.6288 16.8795 79.3554 17.3443 80.0351L17.344 80.0311Z" fill="black"/>
<path d="M28.0232 90.0819C30.5115 93.7303 38.0502 93.9569 41.8322 93.0272C43.551 92.6014 45.1291 91.9217 46.4494 90.992C46.7931 90.7459 47.3595 90.8904 47.5353 91.0349C49.3791 92.5505 52.4103 93.2927 54.9298 93.4451C58.4025 93.6483 62.1993 92.9061 65.0118 90.9334C65.6172 90.5233 65.9258 90.8319 66.0977 90.9764C67.9415 92.4881 70.9727 93.2342 73.4922 93.3826C77.3789 93.6092 81.7031 92.6834 84.6602 90.0076C85.2813 89.4412 84.4219 88.5193 83.8125 89.0701C81.1094 91.5154 77.0703 92.3201 73.5625 92.117C72.3906 92.0467 70.7227 91.7654 69.2266 91.2107C68.2774 90.8592 66.7696 90.1013 66.1875 89.2459C65.9883 88.9569 65.5977 88.8866 65.3086 89.0819C61.6797 91.5585 59.5156 92.4491 54.9966 92.1835C52.8716 92.0585 49.0318 91.371 47.6255 89.3124C47.4263 89.0194 47.0357 88.9491 46.7466 89.1483C43.1138 91.6249 40.9224 92.5116 36.4306 92.2499C34.3095 92.1249 30.4697 91.4374 29.0595 89.3788C28.5829 88.6835 27.5517 89.4101 28.0165 90.0898L28.0232 90.0819Z" fill="black"/>
<path d="M47.2111 50.4301C44.0744 50.6371 42.2619 53.1918 43.0939 56.2192C43.9611 59.3833 47.3791 61.809 50.6525 61.5942C53.7853 61.3871 55.5978 58.8325 54.7658 55.809C53.9103 52.6762 50.4728 50.2152 47.2111 50.4301Z" fill="black"/>
<path d="M66.7232 66.168L67.481 56.2305C65.6451 56.4102 62.9927 55.75 61.0474 55.168L62.1841 66.141C62.3013 67.3168 63.0005 70.8949 64.6294 70.9144C66.231 70.9378 66.6138 67.6292 66.7232 66.1644L66.7232 66.168Z" fill="black"/>
<path d="M63.4181 34.5981C60.9611 36.8247 59.297 38.3247 59.5509 40.7778L60.1095 46.1723C62.5626 47.6957 65.6681 49.3754 67.8634 51.1957L68.6642 40.6997C68.8165 38.7466 67.883 36.7153 66.672 35.3833C65.0822 33.6255 64.3282 33.7778 63.4181 34.6021L63.4181 34.5981Z" fill="black"/>
<path d="M67.8551 53.6911C67.3551 53.0231 66.3707 52.2419 65.2067 51.4372C63.3005 50.1403 61.4333 49.0856 59.5231 47.9138C58.7614 47.4411 57.5426 46.6872 57.1247 46.1755C56.0739 44.8903 55.2106 43.3474 55.1364 41.5349C55.0622 39.7302 55.7692 37.7341 57.863 35.5818C58.9021 34.5115 61.0466 32.574 61.4489 31.3162C61.8551 30.035 60.4411 28.7654 54.9411 27.0076C46.7731 25.0154 45.0309 29.3982 43.1871 34.0232C40.6051 40.5076 39.9723 42.8826 46.4527 46.9292C50.48 49.4487 57.0547 52.0854 61.3747 53.3901C62.8278 53.8276 64.3044 54.2065 65.5778 54.3784C66.6442 54.5229 68.6755 54.976 67.859 53.6948L67.8551 53.6911Z" fill="black"/>
</svg>
