<svg width="110" height="129" viewBox="0 0 110 129" fill="none" xmlns="http://www.w3.org/2000/svg">
<path d="M52.359 37.5309C52.316 37.5426 52.2652 37.5426 52.2184 37.5309C52.0855 37.5309 51.9644 37.4372 51.9293 37.3083C51.8941 37.1754 51.9527 37.0387 52.0699 36.9684C55.0699 35.32 56.2301 27.7067 56.2418 27.6403H56.2379C56.2574 27.5622 56.3004 27.4919 56.359 27.4411C56.8746 26.9098 57.0192 26.1208 56.7301 25.4411C56.5309 24.8122 56.152 24.3903 55.7809 24.3825C55.5895 24.3825 55.359 24.3825 55.2691 24.5427V24.5388C55.1949 24.7067 55.1949 24.902 55.2691 25.07C55.3043 25.1677 55.2848 25.277 55.2184 25.3591C55.1559 25.4489 55.0465 25.4919 54.941 25.4684C54.3707 25.3474 53.7808 25.4059 53.2496 25.6403C53.1832 25.6872 53.1481 25.7692 53.1481 25.8513C53.1285 25.9606 53.1715 26.07 53.2613 26.1403C53.5699 26.2927 53.9254 26.3317 54.2613 26.2497C54.3473 26.2263 54.441 26.2497 54.5113 26.3083C54.5778 26.3708 54.6207 26.4567 54.6207 26.5505C54.4723 30.32 50.8395 33.5505 50.4019 33.9489L51.7535 38.3903H51.7496C51.7848 38.4918 51.7574 38.6051 51.6793 38.6793C50.2379 40.1168 48.3043 40.9488 46.2691 41.0113C45.4136 41.0074 44.5621 40.8512 43.7613 40.5504C43.609 40.484 43.5348 40.316 43.5894 40.1598C43.6207 40.0817 43.6832 40.0192 43.7613 39.9918C43.8355 39.9606 43.9254 39.9645 43.9996 39.9996C46.4879 40.8942 49.2691 40.2809 51.148 38.4215L49.7886 33.9996C48.1988 34.9996 44.687 35.2105 44.5269 35.2184H44.5308C44.3706 35.2262 44.2339 35.1169 44.2105 34.9606V34.82C43.9995 34.9255 43.7769 35.0075 43.5503 35.0583H43.4878C43.3472 35.0583 43.2261 34.9567 43.1988 34.82C43.1792 34.7419 43.191 34.6598 43.2378 34.5934C43.2808 34.527 43.3511 34.4801 43.4292 34.4684C43.6753 34.402 43.9097 34.3005 44.1285 34.1715V33.8903C44.1167 33.7848 44.1558 33.6833 44.2378 33.6208C44.3199 33.5583 44.4253 33.5387 44.5191 33.57C44.5191 33.57 44.941 33.3708 45.5191 31.4294C45.6753 30.9841 45.6167 30.488 45.3589 30.0896C44.7339 29.4451 43.8941 29.0584 42.9995 28.9998L42.8276 30.199C42.8081 30.3396 42.6909 30.449 42.5503 30.4607C42.4409 30.4607 41.5503 30.5193 41.5503 31.3123V31.3084C41.5386 31.4568 41.6011 31.6013 41.7183 31.6912C42.0191 31.7966 42.3472 31.7966 42.648 31.6912C42.7261 31.6638 42.8081 31.6716 42.8784 31.7107C42.9488 31.7498 42.9995 31.8123 43.0191 31.8904C43.0425 31.9646 43.0386 32.0466 42.9995 32.117C42.9605 32.1873 42.898 32.238 42.8198 32.2615H42.6792C42.6792 32.6521 42.4605 37.5115 40.0894 38.9803C39.648 39.2498 39.1363 39.3904 38.6206 39.3904C38.0034 39.3904 37.3979 39.2576 36.8394 38.9998C34.2496 37.8006 32.8394 36.3396 33.1792 35.0896C33.5191 33.8396 35.1284 33.2498 37.7378 33.2888C37.8589 32.4802 38.3394 30.1872 40.1675 29.8982H40.1714C40.3316 28.7732 40.9175 27.7537 41.8081 27.0505C42.6792 26.531 43.7417 26.449 44.6792 26.8279C47.4097 27.7068 46.9487 29.6287 46.6792 30.8865C46.5503 31.4372 46.4292 31.9451 46.6011 32.1365V32.1404C47.1206 32.6794 47.4175 33.3904 47.4409 34.1404C48.2808 34.0115 49.0815 33.6951 49.7807 33.2107C49.8589 33.1404 49.9682 33.1208 50.0698 33.1482C50.1518 33.1716 50.2182 33.2302 50.2495 33.3083C51.0503 32.5701 53.73 29.8786 54.0386 26.8669V26.8708C53.6401 26.9177 53.2339 26.8201 52.898 26.6013C52.687 26.4021 52.5699 26.1208 52.5777 25.8279C52.5777 25.574 52.691 25.3318 52.8902 25.1716C53.4175 24.8591 54.0347 24.7341 54.6402 24.8201C54.6206 24.5974 54.6792 24.3748 54.8003 24.1912C55.0425 23.8904 55.4175 23.7341 55.8003 23.7693C56.4488 23.7693 57.0308 24.3474 57.312 25.2498H57.3081C57.6558 26.1326 57.4683 27.1326 56.8277 27.8279C56.648 28.9217 55.4216 35.8395 52.359 37.5309ZM52.8199 44.2809C52.898 44.2809 52.9762 44.2497 53.0309 44.1911C53.0895 44.1325 53.1207 44.0505 53.1207 43.9684L52.9996 38.3786C52.9996 38.2146 52.8668 38.0778 52.6988 38.0778C52.5348 38.0778 52.3981 38.2146 52.3981 38.3786L52.527 43.6481L50.4254 43.5778H50.4293C50.1363 43.1911 49.8004 42.8356 49.4293 42.5192C49.3668 42.4723 49.2847 42.4489 49.2066 42.4606C49.1246 42.4684 49.0543 42.5114 49.0035 42.5739C48.9019 42.7067 48.9254 42.8981 49.0582 42.9997C49.0582 42.9997 53.3277 46.4294 53.1988 57.8087C52.8472 58.297 50.73 61.1368 48.6207 60.8087L48.3824 56.9181L48.3785 56.922C48.3707 56.7774 48.2613 56.6603 48.1207 56.6407C47.9801 56.6173 47.8433 56.7032 47.8004 56.8399L46.4801 60.668C45.2887 60.668 39.2418 60.668 38.3004 57.4492C41.0348 52.4492 41.6481 46.5582 39.9996 41.1012C39.9761 41.0231 39.9214 40.9567 39.8511 40.9216C39.7808 40.8825 39.6949 40.8747 39.6207 40.8981C39.5425 40.9216 39.4761 40.9723 39.441 41.0426C39.4019 41.113 39.3941 41.195 39.4214 41.2692C41.0581 46.609 40.4566 52.3862 37.7495 57.2692C37.7144 57.3473 37.7144 57.4333 37.7495 57.5114C38.7495 61.7028 46.4487 61.3122 46.7495 61.2926V61.2887C46.8706 61.2848 46.9761 61.2067 47.0113 61.0895L47.9097 58.4879L47.9995 61.0895C47.9995 61.2184 48.0933 61.3317 48.2183 61.359C48.4566 61.4176 48.6949 61.4488 48.941 61.4488C51.441 61.4488 53.6129 58.2379 53.7105 58.0894C53.7222 58.0387 53.7222 57.984 53.7105 57.9293C53.812 50.3707 52.0621 46.2383 50.7105 44.2183L52.7105 44.2769L52.8199 44.2809ZM47.4097 74.7689C48.3824 75.0619 49.3941 75.2142 50.4097 75.2181C52.3785 75.2963 54.2808 74.4838 55.5777 72.9993C55.6168 72.9564 55.6363 72.9056 55.6402 72.8509C55.9918 68.972 53.6402 60.8509 53.5699 60.7219V60.718C53.5191 60.5657 53.3551 60.4836 53.1988 60.5305C53.1207 60.5539 53.0582 60.6047 53.0191 60.6789C52.9801 60.7492 52.9762 60.8313 52.9996 60.9094C52.9996 60.9797 55.3394 68.9094 54.9996 72.6984C54.6402 73.1398 52.398 75.5187 47.8082 74.2882C48.0582 73.2179 48.8082 69.4874 47.7301 66.7101C47.6988 66.6359 47.6441 66.5734 47.5699 66.5421C47.4957 66.5109 47.4137 66.5109 47.3395 66.5382C47.2652 66.5656 47.2027 66.6242 47.1676 66.6984C47.1363 66.7726 47.1363 66.8546 47.1715 66.9289C48.3317 69.9289 47.1715 74.3781 47.1715 74.4172V74.4211C47.1519 74.4992 47.1676 74.5812 47.2144 74.6476C47.2574 74.714 47.3316 74.7572 47.4097 74.7689ZM37.9995 73.4877C38.7612 74.9174 41.23 75.2494 43.3393 75.2494C44.4487 75.2416 45.5581 75.1596 46.6596 74.9994C46.8237 74.976 46.9409 74.8197 46.9135 74.6557C46.8901 74.4877 46.7338 74.3744 46.5698 74.3979C44.6909 74.6869 39.6596 75.0189 38.5698 73.2885C38.8198 72.1596 40.5698 63.8588 39.0502 60.6595C38.976 60.5071 38.7963 60.4407 38.644 60.5149C38.4917 60.5852 38.4292 60.7688 38.4995 60.9212C39.9995 64.1087 37.9995 73.1912 37.9995 73.2802C37.9682 73.3466 37.9683 73.4213 37.9995 73.4877ZM60.2185 104.371C60.2771 104.461 60.2771 104.578 60.2185 104.671C60.1755 104.765 60.0779 104.828 59.9685 104.828L49.2185 105C48.5427 105 47.8943 104.722 47.4294 104.23C46.9685 103.726 46.7302 103.054 46.781 102.371C46.9216 100.23 46.8904 98.0816 46.6794 95.9488C46.5779 94.7691 46.5193 93.359 46.5075 91.8394C46.4177 85.3511 46.9685 76.9174 46.9685 76.8394C46.9919 76.6792 47.1286 76.5581 47.2888 76.5581C47.3708 76.566 47.445 76.6011 47.4958 76.6597C47.5505 76.7222 47.5739 76.8003 47.57 76.8785C47.57 76.98 47.0388 85.1402 47.1013 91.5585H52.2029C52.9021 84.8476 53.9646 76.3085 54.031 75.7695C54.0544 75.6093 54.199 75.496 54.3591 75.5116C54.4411 75.5195 54.5114 75.5624 54.5622 75.6249C54.6091 75.6874 54.6325 75.7695 54.6208 75.8515C54.6208 76.0429 52.1794 95.4535 52.1911 99.0315C52.4099 99.4299 53.7692 101.77 55.7106 101.492C58.1911 101.102 60.1404 104.238 60.2185 104.371ZM47.0775 92.1287C47.0775 93.5193 47.1478 94.8084 47.2494 95.8982C47.39 97.5662 47.4486 99.0935 47.4291 100.488C47.7767 100.679 48.1869 100.718 48.5658 100.597C48.9447 100.476 49.2572 100.207 49.4291 99.8513C50.2494 98.6404 51.0775 98.5115 51.5697 98.5622C51.5697 97.2731 51.8197 94.8903 52.1087 92.1325L47.0775 92.1287ZM59.3895 104.238C58.788 103.429 57.3895 101.828 55.7606 102.058C53.2294 102.417 51.659 99.3392 51.5887 99.2064V99.2103C51.3192 99.1517 50.659 99.2103 49.9403 100.21C49.6083 100.722 49.0848 101.085 48.4872 101.21H48.1357H48.1396C47.8974 101.21 47.6552 101.167 47.4286 101.078C47.4286 101.519 47.4286 101.956 47.3583 102.367V102.371C47.3153 102.886 47.495 103.394 47.8505 103.769C48.2099 104.14 48.7021 104.351 49.2177 104.351L59.3895 104.238ZM44.9985 81.7807C45.0688 81.8198 45.1196 81.8862 45.1352 81.9643C45.1548 82.0424 45.143 82.1206 45.1001 82.1909C44.772 82.7299 37.1587 95.4919 35.5806 97.1909C35.4517 97.4409 34.7017 98.9721 35.7993 99.5893C37.0884 100.32 40.1196 102.261 40.1782 104.441C40.1782 104.605 40.0454 104.746 39.8774 104.749H34.1705C34.0767 104.749 33.9908 104.706 33.94 104.628L28.7095 98.1401C28.0298 97.2963 27.9673 96.1128 28.5493 95.1987C30.9985 91.3901 36.8384 81.8587 38.9983 75.6787C39.0218 75.6044 39.0764 75.5419 39.1507 75.5068C39.221 75.4716 39.303 75.4716 39.3772 75.499C39.4553 75.5224 39.5139 75.5771 39.5491 75.6513C39.5843 75.7216 39.5882 75.8037 39.5569 75.8779C37.9397 80.0341 35.9749 84.0498 33.6897 87.8779C34.2288 88.5888 36.6897 91.5967 39.0686 90.9795C41.6897 86.7998 44.5803 81.9795 44.6194 81.8779C44.7053 81.7607 44.8657 81.7182 44.9985 81.7807ZM33.3505 88.4409C32.12 90.5698 30.9286 92.519 29.9989 93.9995C30.7255 94.0191 31.3817 94.4292 31.7177 95.0698C31.9287 95.6206 33.8661 96.3003 35.2685 96.6401C36.4794 95.0307 37.6083 93.3628 38.6474 91.6401H38.4091C36.1396 91.6714 34.0771 89.3589 33.3505 88.4409ZM34.9286 97.2221C33.9286 96.9604 31.5067 96.2221 31.1474 95.3315C30.9287 94.7729 30.0888 94.6206 29.6279 94.601C29.4287 94.9292 29.2295 95.2495 29.0498 95.5229V95.519C28.6084 96.2182 28.6631 97.1167 29.1787 97.7612L34.3076 104.152H39.5693C39.2295 102.332 36.4287 100.621 35.5693 100.152C34.3584 99.4487 34.5693 98.0776 34.9287 97.2182L34.9286 97.2221ZM29.9989 15.2811C30.0028 15.1952 30.0458 15.1131 30.1122 15.0624C30.1786 15.0077 30.2645 14.9842 30.3505 14.9999C30.6395 14.9999 30.9091 15.0585 31.202 15.0897H31.1981C31.2528 15.0311 31.3309 14.996 31.4091 14.9999C31.4989 15.0077 31.577 15.0546 31.6278 15.1288C34.0145 15.3592 36.3778 15.7655 38.6981 16.3515H38.7802C40.9052 16.8984 42.9872 17.6132 44.999 18.4882C46.6318 19.2147 48.2138 20.0507 49.7295 20.9999H49.788V21.0507C50.9325 21.7499 52.0341 22.5155 53.0888 23.3398C53.1943 23.4179 53.2373 23.5546 53.1904 23.6796C53.1474 23.8046 53.0302 23.8827 52.8974 23.8788C52.8349 23.8749 52.7685 23.8515 52.7177 23.8085C52.0576 23.289 51.3779 22.8085 50.7177 22.3397C50.1123 22.9413 49.9912 23.8749 50.4209 24.6092C50.6591 24.8983 50.9795 25.1131 51.3388 25.2303C51.4131 25.2576 51.4716 25.3162 51.5068 25.3905C51.5381 25.4608 51.5381 25.5467 51.5107 25.6209C51.4677 25.7381 51.3545 25.8162 51.2295 25.8084C51.1982 25.8201 51.1631 25.8201 51.1279 25.8084C50.6631 25.6639 50.249 25.3826 49.9404 24.9998C49.3349 24.0545 49.4482 22.8162 50.2177 21.9998C50.0459 21.8787 49.8662 21.7889 49.6982 21.6795C49.1084 22.4139 48.2216 22.8475 47.2802 22.8592C47.0497 22.8592 46.8232 22.8358 46.6005 22.7889C46.4365 22.7577 46.331 22.5975 46.3622 22.4334C46.3974 22.2733 46.5576 22.1678 46.7177 22.1991C47.6357 22.41 48.5888 22.0819 49.1904 21.3592C47.8584 20.5467 46.4795 19.8162 45.0576 19.1717C44.9053 19.6131 44.8428 20.0819 44.8701 20.5506C44.8779 20.6288 44.8545 20.7108 44.8037 20.7694C44.7529 20.8319 44.6787 20.8709 44.6006 20.8788C44.4443 20.8748 44.3193 20.7616 44.2998 20.6092C44.2646 20.0428 44.3428 19.4764 44.5303 18.9412L43.6396 18.5701C42.8545 19.4334 41.7958 20.0037 40.6396 20.1795C40.1865 20.1834 39.7451 20.0233 39.3974 19.7303C38.4873 19.0858 38.0615 17.9451 38.3271 16.8592C37.9053 16.7577 37.4873 16.6405 37.0576 16.5506C36.4326 17.7811 35.1826 18.574 33.7998 18.6092H33.5108C32.0655 18.41 31.0186 17.1365 31.1006 15.6795L30.3115 15.6014H30.3076C30.2256 15.6014 30.1436 15.5701 30.0811 15.5076C30.0225 15.4491 29.995 15.3631 29.9989 15.2811ZM36.3387 16.4217C34.7996 16.117 33.241 15.8944 31.6785 15.7498C31.6277 16.8748 32.4441 17.8514 33.5574 17.9998C34.7215 18.0623 35.8191 17.4491 36.3699 16.4217L36.3387 16.4217ZM42.9989 18.3201C41.6278 17.8084 40.2333 17.367 38.8192 16.9998C38.6161 17.8631 38.9598 18.7654 39.6903 19.2693C40.7606 20.1404 42.3192 18.9295 42.9989 18.3201ZM60.2489 31.1291C60.5263 30.3127 60.3075 29.4103 59.6903 28.8088C59.3739 28.508 58.9091 28.4104 58.4989 28.5588C58.288 28.6448 58.1122 28.801 57.9989 29.0002C57.6395 28.4416 57.4403 28.5119 57.3192 28.551C56.9677 28.6721 56.9481 29.0823 57.1981 30.4026C57.7099 33.0432 54.827 37.262 54.327 37.9729L53.456 38.094L53.4599 38.0901C53.2997 38.1213 53.1864 38.2659 53.1981 38.4299C53.2255 38.594 53.3739 38.7073 53.538 38.6917L54.538 38.5432V38.5393C54.6161 38.5315 54.6903 38.4924 54.7372 38.4299C54.8856 38.219 58.3778 33.4299 57.7372 30.2893C57.7372 30.0081 57.6474 29.8011 57.6278 29.6175C57.6278 29.719 57.7294 29.8089 57.7684 29.9065V29.9104C57.8309 30.0315 57.9638 30.0979 58.1005 30.0706C58.2333 30.0472 58.3309 29.9339 58.3388 29.8011C58.3388 29.6097 58.4598 29.1722 58.6669 29.0706C58.8778 28.969 59.0966 29.1604 59.245 29.2698C60.1161 29.8909 59.3544 31.9612 58.995 32.6995V32.7894C58.995 32.8909 57.6552 42.5082 53.6161 42.8914H53.62C53.452 42.8914 53.3192 43.0242 53.3192 43.1921C53.3192 43.3562 53.452 43.489 53.62 43.489C58.0184 43.0671 59.4091 33.7585 59.5302 32.919V32.9229C59.6825 32.5948 59.8154 32.2628 59.9286 31.9229C60.1083 32.2315 60.1982 32.4112 60.1982 32.4112C60.249 32.5128 60.3544 32.5792 60.4677 32.5792C60.5107 32.5948 60.5575 32.5948 60.6005 32.5792C60.7489 32.5089 60.8114 32.3292 60.7372 32.1807C60.7372 32.1807 60.6278 31.7307 60.2489 31.1291ZM73.8899 22.6408C76.5461 26.8596 77.343 31.9846 76.1008 36.8088C76.0813 36.8869 76.0969 36.969 76.1399 37.0393C76.1828 37.1057 76.2493 37.1526 76.3274 37.1721H76.3977C76.5383 37.1682 76.6555 37.0744 76.6907 36.9416C77.968 31.9611 77.1399 26.6716 74.3977 22.3206C69.6985 14.7698 59.6787 16.8206 52.5577 19.0003C52.4756 19.0199 52.4053 19.0706 52.3663 19.1449C52.3233 19.2152 52.3116 19.305 52.3389 19.3831C52.3623 19.4652 52.4209 19.5277 52.4991 19.5667C52.5733 19.6019 52.6631 19.6019 52.7374 19.5706C59.671 17.4495 69.4099 15.4416 73.8899 22.6408ZM32.6089 26.1291C33.2574 26.1252 33.9058 26.0549 34.5386 25.9221C37.0074 25.3283 39.4253 24.5393 41.7691 23.5588C41.8433 23.5314 41.9019 23.4768 41.9332 23.4064C41.9683 23.3361 41.9683 23.2541 41.941 23.1799C41.9136 23.1057 41.8551 23.0432 41.7808 23.008C41.7105 22.9729 41.6246 22.9729 41.5504 23.0002C39.2418 23.9611 36.859 24.7385 34.4293 25.3283C32.1676 25.7697 30.5582 25.4572 29.6481 24.4064C27.6481 22.1369 29.3785 17.1252 29.3981 17.0783C29.4254 17.0041 29.4176 16.9221 29.3824 16.8518C29.3473 16.7775 29.2848 16.7268 29.2106 16.6994C29.1363 16.6721 29.0543 16.676 28.9801 16.7072C28.9098 16.7424 28.8551 16.8049 28.8278 16.8791C28.7496 17.0979 26.9997 22.2697 29.1871 24.801H29.191C30.0739 25.7307 31.3276 26.219 32.6089 26.1291ZM80.8789 39.1291C79.0703 37.4103 75.5391 37.6291 75.3906 37.6408C75.2891 37.6486 75.1992 37.7033 75.1484 37.7893C75.1055 37.8752 75.1055 37.9768 75.1484 38.0588C75.4258 38.6252 75.4687 39.2736 75.2695 39.8713C75.039 40.1877 74.664 40.3713 74.2695 40.3518C73.3906 40.4221 72.9492 40.5236 72.8203 40.8635C72.6914 41.2033 72.9688 41.5236 73.4492 42.0354V42.0315C73.8438 42.4455 74.2148 42.883 74.5586 43.3401C74.7305 43.5705 74.7969 43.762 74.7579 43.8713C74.7188 43.9807 73.8789 44.2307 73.4062 44.301C72.7461 44.4026 72.2656 44.4729 72.1562 44.8401C72.0469 45.2112 72.3555 45.4182 72.457 45.5002H72.4609C72.582 45.5901 72.6445 45.7385 72.6289 45.8909C72.5703 46.5823 71.1875 47.6292 70.3281 48.1292C70.2031 48.2073 70.1523 48.3635 70.2109 48.5002C70.25 48.6174 70.3633 48.6956 70.4883 48.6917H70.5468C71.0078 48.5823 81.7968 46.1331 81.8988 41.6917C81.9574 40.7151 81.5863 39.7659 80.8793 39.0901L80.8789 39.1291ZM77.8789 97.3591C77.2188 97.8279 76.0977 98.4489 75.6289 98.2888C75.5391 98.2576 75.4727 98.1833 75.4492 98.0896C75.4492 97.988 75.3203 97.6677 75.0195 97.6286C74.7188 97.5896 74.4609 97.9372 74.1797 98.3786C74.0195 98.6404 73.6914 99.1794 73.5195 99.1794C73.4102 99.1091 73.3203 99.0154 73.2617 98.8982C73.0391 98.5193 72.8399 98.1247 72.6719 97.7185C72.4414 97.1989 72.3125 96.8786 71.9727 96.8669C71.6328 96.8552 71.4414 97.1482 71.1016 97.7771V97.781C70.9961 98.0349 70.7774 98.2224 70.5117 98.281C70.0508 98.3513 69.5117 97.8591 69.3203 97.6716C69.2578 97.5935 69.1563 97.5583 69.0586 97.57C68.961 97.5818 68.875 97.6404 68.8281 97.7302C68.8281 97.8318 67.5078 100.308 68.1875 102.16H68.1914C68.461 102.886 69.0352 103.461 69.7617 103.73C70.0352 103.836 70.3242 103.89 70.6211 103.89C73.8125 103.89 78.1016 98.0506 78.3008 97.7693C78.375 97.6482 78.3594 97.4919 78.2578 97.3943C78.1563 97.2966 77.9961 97.281 77.8789 97.3591ZM47.9999 54.5111H48.078C48.1562 54.4877 48.2226 54.4369 48.2616 54.3666C48.3007 54.3002 48.3124 54.2181 48.289 54.14L47.7577 52.14H47.7616C47.7069 51.9838 47.5468 51.8939 47.3905 51.9291C47.3124 51.9486 47.246 51.9994 47.207 52.0697C47.1679 52.14 47.1601 52.222 47.1796 52.3002L47.7109 54.3002C47.7538 54.4252 47.8671 54.5072 47.9999 54.5111ZM46.7694 49.9994H46.8514C46.9257 49.9799 46.9921 49.9291 47.0311 49.8588C47.0663 49.7885 47.0741 49.7065 47.0507 49.6283L46.6522 48.2494H46.6483C46.6366 48.1635 46.5858 48.0893 46.5116 48.0424C46.4413 47.9955 46.3514 47.9838 46.2694 48.0112C46.1835 48.0346 46.1171 48.0932 46.0819 48.1713C46.0468 48.2494 46.0429 48.3393 46.078 48.4213L46.4764 49.8002H46.4804C46.5233 49.9213 46.6405 50.0033 46.7694 49.9994ZM45.7694 45.1596V43.6908C45.7655 43.5268 45.6327 43.3939 45.4686 43.39C45.3046 43.39 45.1718 43.5228 45.1718 43.6908V45.1986C45.1679 45.2807 45.1991 45.3588 45.2538 45.4135C45.3124 45.4721 45.3905 45.5033 45.4686 45.4994C45.6249 45.4838 45.7421 45.3549 45.7382 45.1986L45.7694 45.1596Z" fill="#020063"/>
</svg>
