<svg width="96" height="120" viewBox="0 0 96 120" fill="none" xmlns="http://www.w3.org/2000/svg">
<path d="M2.521 75.7508C2.34991 75.844 2.20979 75.9852 2.11785 76.157C2.02591 76.3288 1.98615 76.5237 2.00347 76.7178C2.02078 76.9118 2.09441 77.0966 2.21531 77.2494C2.33621 77.4022 2.49911 77.5163 2.684 77.5778L11.684 80.5778C11.8802 80.6431 12.0918 80.6459 12.2897 80.5859C12.4876 80.5259 12.6621 80.4061 12.789 80.2428C13.089 79.8598 20.064 70.7628 17.97 62.3868C17.018 58.2776 15.689 54.265 14 50.3998V47.6498L30.979 47.9998H31C31.1631 47.9996 31.3237 47.9598 31.468 47.8838L38.623 44.0998L35.147 52.0868L30.06 57.7868C29.868 57.7203 29.6601 57.715 29.465 57.7718L26.605 58.6778C26.3683 58.7531 26.168 58.9137 26.0432 59.1285C25.9184 59.3433 25.8781 59.5969 25.93 59.8398L27.394 66.7098C27.4274 66.8666 27.4981 67.0131 27.6 67.1368C27.671 67.2238 34.709 75.9368 32.783 85.4368C31.799 90.2918 30.102 92.1598 30.091 92.1718C29.9559 92.3119 29.8647 92.4883 29.8284 92.6794C29.792 92.8705 29.8123 93.0681 29.8866 93.2479C29.9609 93.4277 30.086 93.582 30.2467 93.6917C30.4073 93.8015 30.5965 93.862 30.791 93.8658L40.277 94.0058H40.3C40.5074 94.0058 40.7097 93.9413 40.8788 93.8213C41.0479 93.7013 41.1756 93.5316 41.244 93.3358C41.4 92.8838 45 82.3398 40.476 74.9998C38.3233 71.3633 35.8383 67.934 33.053 64.7558L32.853 64.2118L41.665 56.3788C41.6984 56.3475 41.7298 56.3141 41.759 56.2788L51.106 45.4098L51.236 52.1298L50.893 54.2478C50.8679 54.401 50.8792 54.5579 50.926 54.7058L52.046 58.2878C52.203 58.7833 52.5134 59.2162 52.9324 59.5239C53.3513 59.8316 53.8572 59.9983 54.377 59.9998C54.5063 59.9996 54.6354 59.9889 54.763 59.9678L57.383 59.5418C57.7392 59.484 58.0781 59.3479 58.3753 59.1432C58.6724 58.9385 58.9205 58.6704 59.1015 58.3582C59.2825 58.0461 59.392 57.6976 59.422 57.338C59.452 56.9784 59.4018 56.6167 59.275 56.2788L57.443 51.3888L58.465 41.1668L61.85 39.3668L62 43.0408C62.0082 43.2432 62.0779 43.4382 62.2 43.5998L71.145 55.5268L72.105 57.4468C72.176 57.5863 72.2787 57.7073 72.405 57.7998L75.405 60.0508C75.8754 60.4011 76.4559 60.571 77.0409 60.5295C77.626 60.4881 78.1767 60.238 78.593 59.8248L80.47 57.9478C80.7243 57.6929 80.919 57.3848 81.0401 57.0457C81.1612 56.7065 81.2056 56.3448 81.1702 55.9864C81.1349 55.6281 81.0205 55.282 80.8355 54.9731C80.6504 54.6642 80.3993 54.4001 80.1 54.1998L75.753 51.2998L70.017 41.3838L70.344 33.9838C73.4808 30.8973 75.4642 26.8282 75.963 22.4558L77.472 20.9468C78.5096 21.6568 79.743 22.0249 81 21.9998C82.9418 21.9312 84.8361 21.3814 86.513 20.3998C86.9749 20.6452 87.4856 20.7845 88.008 20.8078C88.053 20.8078 88.097 20.8078 88.142 20.8078C89.0772 20.8066 89.9739 20.4352 90.636 19.7748L92.053 18.3578C92.616 17.7881 92.9688 17.044 93.0537 16.2475C93.1385 15.4511 92.9503 14.6494 92.52 13.9738C92.8272 13.1847 92.9898 12.3466 93 11.4998C93.0016 9.69152 92.4866 7.9204 91.5156 6.39489C90.5447 4.86937 89.1582 3.65294 87.5193 2.88876C85.8804 2.12458 84.0574 1.84443 82.2646 2.0813C80.4719 2.31818 78.7842 3.0622 77.4 4.22582C77.389 4.23482 77.376 4.23682 77.365 4.24582C77.354 4.25482 77.345 4.27482 77.332 4.28782C76.2924 5.17326 75.4564 6.27291 74.8813 7.51148C74.3062 8.75004 74.0056 10.0983 74 11.4638L73.194 11.9998C72.7756 12.277 72.2997 12.4556 71.8022 12.5223C71.3048 12.589 70.7987 12.542 70.322 12.3848C69.4199 12.0814 68.4527 12.0264 67.522 12.2258C63.352 13.1258 60.355 15.8538 57.122 19.0848L54.575 21.7758C51.511 24.8408 48.558 26.7948 46.675 27.0038C43.4821 27.3538 40.5188 28.8313 38.318 31.1708L28.553 40.0448L13.675 41.9048C13.4933 41.7304 13.2519 41.6317 13 41.6288H10C9.7563 41.6289 9.52102 41.7179 9.33836 41.8792C9.15569 42.0406 9.03822 42.263 9.008 42.5048L8.008 50.5048C7.98683 50.6725 8.00851 50.8428 8.071 50.9998C8.109 51.0998 11.861 60.7288 8.086 69.2228C6.91987 71.9028 4.98267 74.1752 2.521 75.7508ZM57.371 57.3508C57.3389 57.4073 57.2944 57.4558 57.2409 57.4927C57.1874 57.5296 57.1262 57.5539 57.062 57.5638L54.442 57.9998C54.3381 58.0162 54.2318 57.9949 54.1422 57.9399C54.0526 57.8849 53.9855 57.7998 53.953 57.6998L52.9 54.3358L53.1 53.0728L55.768 52.6388L57.4 56.9808C57.4237 57.0413 57.4335 57.1064 57.4284 57.1712C57.4234 57.2359 57.4038 57.2987 57.371 57.3548V57.3508ZM79.179 56.1768C79.1856 56.2414 79.1776 56.3067 79.1556 56.3678C79.1336 56.4288 79.0982 56.4842 79.052 56.5298L77.175 58.4068C77.1001 58.481 77.0012 58.5259 76.8961 58.5334C76.791 58.5409 76.6867 58.5106 76.602 58.4478L73.789 56.3378L73.217 55.1998L75.127 53.2898L78.985 55.8618C79.0391 55.8972 79.0846 55.9441 79.1181 55.9993C79.1517 56.0545 79.1725 56.1165 79.179 56.1808V56.1768ZM76.005 11.8178C77.9731 12.5274 80.0442 12.9098 82.136 12.9498C81.9258 13.5334 81.8731 14.1622 81.9834 14.7726C82.0936 15.383 82.3629 15.9536 82.764 16.4268L84.935 18.9608C83.7167 19.5949 82.3725 19.9498 81 19.9998C76.979 19.9998 76.052 15.6258 76.005 11.8178ZM90.639 16.9468L89.222 18.3638C89.0732 18.5126 88.8953 18.629 88.6994 18.7057C88.5036 18.7825 88.2939 18.8179 88.0837 18.8099C87.8735 18.8018 87.6672 18.7504 87.4778 18.6588C87.2884 18.5673 87.1199 18.4375 86.983 18.2778L84.283 15.1248C84.0346 14.8321 83.9051 14.4569 83.9199 14.0733C83.9347 13.6896 84.0928 13.3255 84.363 13.0528L84.709 12.7068L85.779 11.6358C85.9199 11.4938 86.0875 11.3812 86.2722 11.3045C86.4569 11.2278 86.655 11.1885 86.855 11.1888H86.916C87.1262 11.1964 87.3325 11.2477 87.5219 11.3393C87.7113 11.4308 87.8795 11.5608 88.016 11.7208L90.65 14.7998L90.718 14.8798C90.9651 15.1721 91.0939 15.5462 91.0793 15.9286C91.0647 16.3111 90.9076 16.6742 90.639 16.9468ZM74.112 13.7788C74.2314 15.8371 74.8995 17.8259 76.047 19.5388L75.065 20.5208C73.6333 18.776 72.8715 16.5774 72.917 14.3208C73.3362 14.1903 73.7376 14.0082 74.112 13.7788ZM29.124 41.9918C29.3286 41.9664 29.5204 41.8784 29.673 41.7398L39.731 32.5998C41.6156 30.5821 44.1599 29.3051 46.904 28.9998C47.023 28.9858 47.145 28.9608 47.265 28.9388C47.794 31.4208 49.437 37.6028 53.305 41.6488L50.531 43.1228C50.4209 43.1808 50.3228 43.2592 50.242 43.3538L40.285 54.9268L32.11 62.1928L31.146 59.5718L36.746 53.2948C36.8172 53.2158 36.875 53.1256 36.917 53.0278L41.457 42.5998L48.468 38.8888C48.7024 38.7647 48.878 38.5525 48.956 38.299C49.034 38.0454 49.0081 37.7713 48.884 37.5368C48.7599 37.3024 48.5477 37.1268 48.2942 37.0488C48.0406 36.9708 47.7664 36.9967 47.532 37.1208L30.762 45.9998L14 45.6498V43.8828L29.124 41.9918Z" fill="#AD08FF"/>
</svg>
