<svg width="110" height="135" viewBox="0 0 110 135" fill="none" xmlns="http://www.w3.org/2000/svg">
<path fill-rule="evenodd" clip-rule="evenodd" d="M67.8402 34.1989C62.684 22.2579 56.2542 14.3979 55.0002 14.3979C53.7462 14.3979 47.3166 22.2535 42.1602 34.195C36.7305 46.769 34.8985 59.867 38.1875 73.867L30.1484 81.906C29.4257 81.1834 28.3711 79.9841 27.0195 81.2264L18.5039 88.3787C17.8281 89.0544 17.8281 90.1482 18.5039 90.824L24.1719 96.492C24.8477 97.1677 25.9414 97.1677 26.6172 96.492L33.7695 87.9764C35.0078 86.6248 33.8125 85.5741 33.0898 84.8475L39.4492 78.4881C40.2461 81.0545 41.168 83.4959 42.1601 85.7967C47.3163 97.7417 53.7461 105.602 55.0001 105.602C56.2541 105.602 62.6837 97.7462 67.8401 85.8047C73.2737 73.2267 75.1018 60.1327 71.8128 46.1327L79.8323 38.1132C80.5589 38.8397 81.6135 40.0429 82.969 38.7967L91.4963 31.6326C92.1721 30.9569 92.1721 29.8593 91.4963 29.1834L85.8205 23.5076C85.1447 22.8319 84.0471 22.8319 83.3713 23.5076L76.2072 32.035C74.965 33.3904 76.1682 34.4452 76.8908 35.1716L70.551 41.5114C69.7541 38.9411 68.8363 36.4958 67.8402 34.1989ZM43.1412 68.914C42.4303 66.1952 42.0357 63.1757 42.0357 59.9999C42.0357 38.5589 58.1297 30.7109 65.3367 46.7229L62.0281 50.0315C61.657 49.0003 61.2273 48.0432 60.7508 47.1799C53.9656 34.8749 44.1528 49.3048 46.7778 65.2818L43.1412 68.914ZM66.8602 51.0859C67.5711 53.8047 67.9657 56.8242 67.9657 60C67.9657 81.4301 51.8797 89.2971 44.6647 73.2771L47.9733 69.9684C48.3444 70.9996 48.7741 71.9567 49.2506 72.82C56.0318 85.125 65.8486 70.6951 63.2236 54.7181L66.8602 51.0859Z" fill="#AD08FF"/>
</svg>
