<svg width="24" height="24" viewBox="0 0 24 24" fill="none" xmlns="http://www.w3.org/2000/svg">
<path d="M19.75 5.367V3C19.75 2.586 19.414 2.25 19 2.25C18.586 2.25 18.25 2.586 18.25 3V5.25H5C3.483 5.25 2.25 6.483 2.25 8V14C2.25 15.517 3.483 16.75 5 16.75H8.395C8.94 16.75 9.467 16.59 9.92 16.288L11.307 15.363C11.727 15.084 12.272 15.084 12.694 15.363L14.081 16.288C14.534 16.59 15.061 16.75 15.606 16.75H18.251V19C18.251 19.689 17.69 20.25 17.001 20.25H13.001C12.587 20.25 12.251 20.586 12.251 21C12.251 21.414 12.587 21.75 13.001 21.75H17.001C18.518 21.75 19.751 20.517 19.751 19V16.633C20.902 16.304 21.751 15.255 21.751 14V8C21.751 6.745 20.901 5.696 19.75 5.367ZM20.25 14C20.25 14.689 19.689 15.25 19 15.25H15.605C15.358 15.25 15.118 15.178 14.912 15.04L13.525 14.115C13.061 13.806 12.531 13.652 12 13.652C11.469 13.652 10.938 13.806 10.475 14.115L9.088 15.04C8.882 15.178 8.642 15.25 8.395 15.25H5C4.311 15.25 3.75 14.689 3.75 14V8C3.75 7.311 4.311 6.75 5 6.75H19C19.689 6.75 20.25 7.311 20.25 8V14Z" fill="black"/>
</svg>
