<svg width="110" height="135" viewBox="0 0 110 135" fill="none" xmlns="http://www.w3.org/2000/svg">
<path d="M82.2972 50.2341C82.2972 44.5466 78.516 39.5151 73.0784 38.0151C67.469 36.4526 58.7034 34.6089 48.7504 34.6089C38.7974 34.6089 30.0314 36.4527 24.4224 38.0151C18.9849 39.5151 15.2036 44.5463 15.2036 50.2341V57.7497C15.2036 60.9216 17.7974 63.5153 20.9692 63.5153H42.2662C43.4068 63.5153 44.3912 62.6715 44.5474 61.5465L45.6099 54.0934C45.8287 52.5309 47.188 51.359 48.7505 51.359C50.313 51.359 51.6724 52.5309 51.8911 54.0934L52.9536 61.5465C53.1099 62.6715 54.0942 63.5153 55.2348 63.5153H76.5318C79.7037 63.5153 82.2974 60.9215 82.2974 57.7497L82.2972 50.2341Z" fill="#020063"/>
<path d="M87.688 59.219V50.1409C87.688 41.3284 81.5318 33.7349 72.922 31.9219C65.2658 30.2969 56.047 28.75 48.75 28.75C40.3594 28.75 31.812 29.8906 24.484 31.4219C15.9059 33.2188 9.81201 40.8594 9.81201 49.6249V59.2187C9.81201 64.8281 14.3589 69.3747 19.968 69.3747H77.53C83.1394 69.3747 87.686 64.8278 87.686 59.2187L87.688 59.219ZM55.235 65.8596C52.9381 65.8596 50.9694 64.1408 50.6412 61.8752L49.5787 54.4221C49.5162 54.0159 49.1568 53.7034 48.7506 53.7034C48.3444 53.7034 47.985 54.0159 47.9225 54.4221L46.86 61.8752C46.5319 64.1408 44.5631 65.8596 42.2662 65.8596H20.9692C16.5004 65.8596 12.8598 62.219 12.8598 57.7502V50.2346C12.8598 43.4846 17.3598 37.5316 23.7978 35.7506C29.5322 34.1568 38.5318 32.2662 48.7508 32.2662C58.9698 32.2662 67.9698 34.1568 73.7038 35.7506C80.1413 37.5318 84.6418 43.485 84.6418 50.2346V57.7502C84.6418 62.219 81.0012 65.8596 76.5324 65.8596H55.235Z" fill="#020063"/>
<path d="M62.812 78.75C62.812 75.2969 60.0151 72.5 56.562 72.5H40.937C37.4839 72.5 34.687 75.2969 34.687 78.75V81.875C34.687 85.3281 37.4839 88.125 40.937 88.125H41.8276C42.1558 85.5781 43.312 83.2188 45.1557 81.3906C47.3432 79.1875 50.2963 77.9687 53.4369 77.9687H55.7807V88.1247H56.562C60.0151 88.1247 62.812 85.3278 62.812 81.8747L62.812 78.75Z" fill="#020063"/>
<path d="M24 29.1251C29.9531 27.8907 39.062 26.4063 48.75 26.4063C55.0312 26.4063 63.328 27.4844 73.406 29.6251C74.3591 29.8282 75.2966 30.0939 76.2029 30.422C74.0779 23.9376 67.9998 19.375 60.9369 19.375H36.5619C32.4994 19.375 28.7807 20.875 25.9209 23.3906C23.9678 25.1094 22.4365 27.3125 21.499 29.8125C22.3115 29.5312 23.1396 29.2969 23.999 29.125L24 29.1251Z" fill="#020063"/>
<path d="M30 100.625H36.6406V94.375H31.5625L30 100.625Z" fill="#020063"/>
<path d="M53.438 80.312C50.8442 80.312 48.5005 81.3589 46.813 83.062C45.1099 84.7495 44.063 87.0932 44.063 89.687V94.3745H38.9849V100.625H60.0789V94.3745H53.4383L53.438 80.312Z" fill="#020063"/>
<path d="M87.8119 33.438H90.9369V94.376H62.4209V100.626H97.1869V33.438H100.312V22.5L87.8119 30.3125V33.438Z" fill="#020063"/>
</svg>
