<svg width="100" height="125" viewBox="0 0 100 125" fill="none" xmlns="http://www.w3.org/2000/svg">
<path d="M2.0002 90.2597C2.8702 89.4897 3.7202 88.7197 4.5902 87.9597C5.88374 86.9391 7.38587 86.2154 8.9902 85.8397C9.29403 85.7668 9.57765 85.6267 9.8202 85.4297C10.4902 84.8697 11.1502 84.2797 11.7602 83.6597C15.6202 79.8131 19.4702 75.9531 23.3102 72.0797C29.2635 66.0797 35.2069 60.0797 41.1402 54.0797C44.2269 50.9397 47.3169 47.7997 50.4102 44.6597C50.8989 44.0728 51.5143 43.6044 52.2102 43.2897C52.7256 43.0729 53.2925 43.0091 53.8431 43.1061C54.3938 43.203 54.9049 43.4565 55.3152 43.8363C55.7256 44.216 56.0178 44.706 56.1571 45.2475C56.2963 45.789 56.2765 46.3592 56.1002 46.8897C55.8428 47.5332 55.4265 48.1008 54.8902 48.5397C54.5102 48.9397 54.0702 49.2997 53.6802 49.6897C48.9069 54.5097 44.1402 59.3264 39.3802 64.1397C34.6202 68.9531 29.7969 73.8197 24.9102 78.7397C21.4602 82.2597 18.0002 85.7997 14.5702 89.3097C14.4337 89.4352 14.329 89.5913 14.2647 89.7651C14.2003 89.939 14.1782 90.1257 14.2002 90.3097C14.225 90.716 14.225 91.1235 14.2002 91.5297C14.1283 92.5957 13.7065 93.6081 13.0002 94.4097C12.0002 95.6797 11.0002 96.8997 10.0002 98.1397L9.2302 98.9997H6.7702C6.8602 98.8797 6.9302 98.7497 7.0302 98.6397C8.0002 97.5597 9.0002 96.5197 10.0002 95.3997C10.8102 94.3997 11.5602 93.3997 12.3002 92.3997C12.4356 92.196 12.5246 91.965 12.5609 91.7231C12.5972 91.4812 12.5799 91.2342 12.5102 90.9997C11.7022 90.7074 10.9687 90.2403 10.362 89.6318C9.75525 89.0234 9.29027 88.2886 9.0002 87.4797C8.2702 87.8097 7.55019 88.1197 6.85019 88.4797C6.5281 88.6321 6.22022 88.8128 5.9302 89.0197C4.64727 89.9555 3.46434 91.0211 2.4002 92.1997C2.25748 92.3473 2.10728 92.4875 1.9502 92.6197L2.0002 90.2597ZM12.5402 89.1497C12.7002 88.9897 12.8502 88.8597 12.9902 88.7097C14.8302 86.8831 16.6635 85.0497 18.4902 83.2097C21.6769 80.0097 24.8635 76.8064 28.0502 73.5997L45.6202 55.7497C48.5302 52.7497 51.4502 49.8497 54.3502 46.8997C54.5314 46.7362 54.6649 46.5265 54.7364 46.2931C54.8079 46.0597 54.8148 45.8112 54.7563 45.5742C54.6978 45.3372 54.5762 45.1205 54.4043 44.9471C54.2324 44.7737 54.0167 44.6502 53.7802 44.5897C53.4625 44.4688 53.1156 44.447 52.7853 44.5274C52.455 44.6077 52.1568 44.7864 51.9302 45.0397C49.7902 47.2297 47.6402 49.3997 45.4902 51.5797C39.2502 57.8997 33.0069 64.2331 26.7602 70.5797C21.5869 75.7797 16.4502 81.0031 11.3502 86.2497C11.2279 86.3903 11.0977 86.5239 10.9602 86.6497C10.8555 86.7295 10.7842 86.8453 10.7602 86.9747C10.7361 87.104 10.7611 87.2377 10.8302 87.3497C11.1899 88.103 11.7684 88.7304 12.4902 89.1497H12.5402Z" fill="#020063"/>
<path d="M2 94.1798L4.6 91.4198C4.68046 91.3206 4.78326 91.2418 4.9 91.1898C4.96618 91.1724 5.03537 91.1696 5.10274 91.1817C5.1701 91.1938 5.23401 91.2205 5.29 91.2598C5.3224 91.3179 5.33941 91.3833 5.33941 91.4498C5.33941 91.5163 5.3224 91.5817 5.29 91.6398C4.17 92.8331 3.07333 94.0165 2 95.1898V94.1798Z" fill="#020063"/>
<path d="M55.6802 17.2799C55.7402 17.9899 55.8202 18.6299 55.8402 19.2799C55.8412 22.3833 55.2997 25.463 54.2402 28.3799C53.2735 31.0588 51.9982 33.616 50.4402 35.9999C46.8341 41.8022 42.3969 47.0446 37.2702 51.5599C33.8838 54.5905 30.1353 57.1903 26.1102 59.2999C22.9561 60.9508 19.5322 62.0244 16.0002 62.4699C14.7752 62.63 13.5322 62.5894 12.3202 62.3499C11.2098 62.0983 10.1761 61.5836 9.30595 60.8492C8.43586 60.1149 7.75484 59.1823 7.32021 58.1299C6.5632 56.5024 6.15448 54.7346 6.12021 52.9399C6.04595 48.9342 6.89452 44.9651 8.60021 41.3399C10.461 37.1405 13.0472 33.3018 16.2402 29.9999C16.4515 29.7689 16.6057 29.4914 16.6902 29.1899C18.5597 21.8294 23.0826 15.4191 29.3902 11.1899C32.7076 8.77857 36.5617 7.21017 40.6202 6.61994C43.01 6.23126 45.4597 6.469 47.7302 7.30994C49.4058 7.9486 50.9232 8.94251 52.1782 10.2234C53.4332 11.5042 54.3959 13.0416 55.0002 14.7299C55.0563 14.9465 55.1878 15.136 55.3711 15.2643C55.5544 15.3926 55.7775 15.4514 56.0002 15.4299C60.2475 15.7502 64.4251 16.6902 68.4002 18.2199C69.0602 18.4799 69.7302 18.7099 70.4002 18.9499C71.6615 19.3936 72.869 19.9772 74.0002 20.6899L74.4802 20.2299C77.5869 17.0499 80.6969 13.8766 83.8102 10.7099C85.3402 9.15994 86.9202 7.64994 88.4902 6.12994C88.7391 5.87713 89.0178 5.65551 89.3202 5.46994C91.7412 3.94869 94.26 2.58906 96.8602 1.39994C97.1302 1.27994 97.4202 1.04994 97.6902 1.32994C97.9602 1.60994 97.6902 1.93994 97.5802 2.19994C96.5602 3.97994 95.5369 5.75994 94.5102 7.53994C94.2802 7.93994 94.0302 8.32994 93.7902 8.73994C93.2934 9.56724 92.6917 10.3269 92.0002 10.9999C89.3002 13.7199 86.6402 16.4599 84.0002 19.1899C83.0002 20.2599 81.8902 21.3099 80.8302 22.3699C80.7101 22.4811 80.5832 22.5846 80.4502 22.6799C81.8002 23.9999 82.0002 25.2099 81.0002 26.2099C80.0002 27.2099 78.7602 26.9999 77.5602 25.7699C77.4502 25.8599 77.3302 25.9399 77.2302 26.0399C72.8302 30.4533 68.4202 34.8666 64.0002 39.2799L61.5102 41.7799C60.8772 42.4237 60.4913 43.2699 60.4202 44.1699C60.399 44.4286 60.3622 44.6857 60.3102 44.9399C60.2502 45.3099 60.0302 45.5599 59.7702 45.5799C59.6225 45.5599 59.4843 45.4957 59.3736 45.3958C59.263 45.2959 59.1851 45.1649 59.1502 45.0199C58.8902 44.0199 58.6102 43.1199 58.3902 42.1499C58.1022 40.6481 58.0181 39.1143 58.1402 37.5899C58.1556 37.063 58.3784 36.5635 58.7602 36.1999C62.2002 32.7499 65.5902 29.2799 69.0002 25.8199L72.3002 22.4699L72.5602 22.1499C72.2302 21.9599 71.9402 21.7799 71.6302 21.6199C68.7031 20.0819 65.5766 18.9578 62.3402 18.2799C60.1446 17.8008 57.9198 17.4667 55.6802 17.2799ZM53.6802 17.1699H53.2802C49.3513 16.9977 45.4157 17.2762 41.5502 17.9999C32.7907 19.7226 24.7382 24.0029 18.4102 30.2999C18.2015 30.5072 18.0589 30.7717 18.0002 31.0599C17.8102 32.1599 17.6202 33.2699 17.5102 34.3799C17.205 36.6248 17.417 38.9096 18.1302 41.0599C18.4253 41.8867 18.8845 42.6452 19.4802 43.2899C19.8002 43.6299 20.1302 43.9599 20.4802 44.2899C21.0602 44.8299 21.6702 45.2899 22.2102 45.8899C23.0601 46.7693 23.6157 47.891 23.8002 49.0999C23.8692 49.5503 23.8124 50.0109 23.6359 50.431C23.4594 50.851 23.1702 51.214 22.8002 51.4799C22.4737 51.7197 22.0851 51.8603 21.6808 51.8852C21.2765 51.91 20.8736 51.8179 20.5202 51.6199C19.8103 51.3187 19.2025 50.8186 18.7702 50.1799C18.0185 49.0852 17.4322 47.8856 17.0302 46.6199C16.4483 44.7923 16.0595 42.9086 15.8702 40.9999C15.5553 38.6471 15.5553 36.2628 15.8702 33.9099C15.8854 33.6668 15.8854 33.423 15.8702 33.1799C15.6996 33.2584 15.5516 33.3788 15.4402 33.5299C12.7239 36.8327 10.6146 40.5908 9.21021 44.6299C8.04325 47.6941 7.59839 50.986 7.91021 54.2499C8.035 55.565 8.42629 56.841 9.06021 57.9999C9.49777 58.8898 10.1732 59.6411 11.0116 60.1707C11.85 60.7002 12.8187 60.9872 13.8102 60.9999C15.3395 61.049 16.8687 60.9011 18.3602 60.5599C22.0266 59.7224 25.51 58.2246 28.6402 56.1399C36.6738 50.9297 43.4668 44.0207 48.5402 35.8999C51.5072 31.5217 53.3357 26.4727 53.8602 21.2099C53.9709 19.8595 53.8969 18.5003 53.6402 17.1699H53.6802ZM19.1102 27.1699L19.3302 27.0699C19.4346 26.9921 19.5348 26.9086 19.6302 26.8199C23.1963 23.7717 27.1758 21.2433 31.4502 19.3099C36.1152 17.2356 41.087 15.9353 46.1702 15.4599C48.2504 15.2583 50.3408 15.1815 52.4302 15.2299H53.0602C53.0336 15.118 53.0002 15.0078 52.9602 14.8999C52.3621 13.5189 51.4793 12.2796 50.3696 11.2629C49.2599 10.2463 47.9482 9.47516 46.5202 8.99994C44.1254 8.2842 41.5806 8.2358 39.1602 8.85994C35.3697 9.70288 31.8266 11.4145 28.8102 13.8599C24.5587 17.1389 21.2728 21.5064 19.3002 26.4999C19.2302 26.6899 19.1702 26.8799 19.0702 27.1499L19.1102 27.1699ZM90.8002 9.99994C90.6202 9.72994 90.4302 9.47994 90.2802 9.19994C90.2508 9.05138 90.2508 8.8985 90.2802 8.74994C90.4269 8.78827 90.5681 8.84541 90.7002 8.91994C90.9202 9.10994 91.1102 9.32994 91.3702 9.59994L94.8402 4.24994L94.1102 4.66994C92.9202 5.36994 91.7502 6.11994 90.5202 6.73994C89.8541 7.06166 89.2432 7.48694 88.7102 7.99994C86.1435 10.5999 83.5769 13.2066 81.0102 15.8199C79.2102 17.6399 77.4302 19.4699 75.6302 21.2899C70.7835 26.1966 65.9235 31.0999 61.0502 35.9999C59.7002 36.9099 59.6402 38.2599 59.7802 39.6799C59.8088 39.9753 59.8522 40.269 59.9102 40.5599C59.9658 40.7875 60.036 41.0113 60.1202 41.2299L90.8002 9.99994ZM18.3202 44.2899L18.2002 44.3799C18.4883 45.6679 18.9211 46.9192 19.4902 48.1099C19.7637 48.6691 20.0991 49.1957 20.4902 49.6799C20.8169 50.0048 21.1912 50.278 21.6002 50.4899C21.7162 50.5537 21.8516 50.5726 21.9807 50.5431C22.1097 50.5136 22.2234 50.4378 22.3002 50.3299C22.4632 50.1607 22.5743 49.9483 22.6203 49.718C22.6664 49.4876 22.6456 49.2488 22.5602 49.0299C22.42 48.3857 22.0972 47.7954 21.6302 47.3299C20.5202 46.2999 19.4102 45.2999 18.3202 44.2899ZM80.0002 24.6599C79.9885 24.5189 79.9265 24.3868 79.8256 24.2877C79.7246 24.1886 79.5914 24.129 79.4502 24.1199C79.331 24.1418 79.2242 24.2071 79.1503 24.3031C79.0765 24.3992 79.0408 24.5191 79.0502 24.6399C79.0487 24.709 79.0615 24.7777 79.0879 24.8416C79.1143 24.9055 79.1536 24.9632 79.2034 25.0111C79.2532 25.0591 79.3124 25.0961 79.3773 25.12C79.4421 25.1439 79.5112 25.1541 79.5802 25.1499C79.7005 25.1397 79.812 25.0826 79.8906 24.9909C79.9691 24.8993 80.0085 24.7804 80.0002 24.6599Z" fill="#020063"/>
<path d="M7.94026 89.2899C7.85507 89.4003 7.76146 89.5039 7.66026 89.5999L6.50026 90.4599C6.41615 90.5311 6.31701 90.5824 6.21026 90.6099C6.15856 90.6116 6.10705 90.6027 6.05891 90.5837C6.01076 90.5648 5.96698 90.5363 5.93026 90.4999C5.90802 90.453 5.89648 90.4017 5.89648 90.3499C5.89648 90.298 5.90802 90.2467 5.93026 90.1999C6.04683 90.0807 6.17784 89.9765 6.32026 89.8899C6.68026 89.6599 7.04026 89.4399 7.41026 89.2299C7.54849 89.1735 7.69278 89.1332 7.84026 89.1099L7.94026 89.2899Z" fill="#020063"/>
<path d="M9.75 91C9.90812 91.0062 10.0654 91.0263 10.22 91.06C10.6667 91.26 11.1167 91.47 11.57 91.69C11.67 91.69 11.73 91.89 11.81 91.99C11.71 92.05 11.6 92.16 11.5 92.17C11.142 92.1102 10.8009 91.9749 10.4992 91.7732C10.1975 91.5715 9.94209 91.3079 9.75 91Z" fill="#020063"/>
<path d="M39.74 60.84C39.59 60.72 39.44 60.67 39.4 60.57C39.3758 60.5131 39.3633 60.4519 39.3633 60.39C39.3633 60.3282 39.3758 60.267 39.4 60.21C39.4756 60.104 39.5628 60.0067 39.66 59.92L51 48.47C51.1631 48.2929 51.3519 48.1412 51.56 48.02C51.6314 47.9963 51.7074 47.9894 51.782 47.9998C51.8565 48.0102 51.9277 48.0377 51.99 48.08C52.07 48.17 51.99 48.39 51.99 48.52C51.99 48.65 51.83 48.72 51.74 48.82L40.44 60.32C40.2 60.51 40 60.66 39.74 60.84Z" fill="#020063"/>
<path d="M28.0003 72.6897C27.8481 72.9546 27.6777 73.2085 27.4903 73.4497C26.4203 74.5597 25.3303 75.6697 24.2403 76.7697C22.1203 78.9231 20.0036 81.0597 17.8903 83.1797C17.7233 83.354 17.5312 83.5023 17.3203 83.6197C17.2528 83.6366 17.1823 83.6373 17.1145 83.6216C17.0467 83.606 16.9836 83.5745 16.9303 83.5297C16.9005 83.478 16.8848 83.4194 16.8848 83.3597C16.8848 83.3 16.9005 83.2414 16.9303 83.1897C17.0953 82.919 17.2898 82.6675 17.5103 82.4397C19.8403 80.0597 22.1903 77.6897 24.5103 75.3097C25.3603 74.4397 26.2003 73.5697 27.0603 72.7097C27.1602 72.5801 27.3013 72.4884 27.4603 72.4497C27.6103 72.4397 27.7503 72.5797 28.0003 72.6897Z" fill="#020063"/>
<path d="M31.3403 68.6397C31.4499 68.4124 31.584 68.1978 31.7403 67.9997C33.3603 66.3297 35.0003 64.6697 36.6303 62.9997L36.7503 62.8797C36.7813 62.8438 36.8197 62.8149 36.8628 62.7952C36.906 62.7754 36.9529 62.7651 37.0003 62.7651C37.0478 62.7651 37.0947 62.7754 37.1378 62.7952C37.181 62.8149 37.2194 62.8438 37.2503 62.8797C37.2903 62.9135 37.3225 62.9556 37.3445 63.0031C37.3666 63.0506 37.378 63.1024 37.378 63.1547C37.378 63.2071 37.3666 63.2588 37.3445 63.3063C37.3225 63.3538 37.2903 63.3959 37.2503 63.4297C37.1103 63.5997 36.9603 63.7597 36.8003 63.9197L32.2103 68.5897C32.0003 68.8197 31.7803 68.9997 31.3403 68.6397Z" fill="#020063"/>
<path d="M81.7599 17.5C81.8799 17.57 82.0199 17.62 82.0599 17.71C82.0848 17.7632 82.0978 17.8212 82.0978 17.88C82.0978 17.9388 82.0848 17.9968 82.0599 18.05C81.9698 18.1838 81.8622 18.3049 81.7399 18.41C76.4599 23.73 75.4899 24.86 70.2099 30.18L61.8799 38.59C61.8187 38.678 61.7405 38.7528 61.6499 38.81C61.5199 38.87 61.2899 38.96 61.2499 38.91C61.1981 38.8442 61.1599 38.7688 61.1375 38.6881C61.1152 38.6074 61.1092 38.523 61.1199 38.44C61.189 38.2611 61.3026 38.1028 61.4499 37.98C62.8799 36.54 64.3199 35.11 65.7399 33.67C72.1999 27.14 74.3499 24.81 80.8099 18.28C80.9899 18.11 81.1599 17.92 81.3499 17.75C81.4803 17.6569 81.6174 17.5734 81.7599 17.5Z" fill="#020063"/>
<path d="M31.3699 69.12C31.2999 68.97 31.1899 68.84 31.2099 68.75C31.2525 68.5975 31.3354 68.4593 31.4499 68.35L34.8799 64.88L36.7499 63C36.8893 62.862 37.0362 62.7318 37.1899 62.61C37.3499 62.48 37.5499 62.46 37.6499 62.61C37.6716 62.6796 37.6756 62.7535 37.6617 62.8251C37.6477 62.8967 37.6162 62.9637 37.5699 63.02C37.1299 63.54 36.6799 64.02 36.1999 64.53C35.0899 65.62 33.9599 66.69 32.8399 67.77C32.5599 68.05 32.2999 68.35 32.0099 68.61C31.808 68.7938 31.5942 68.9642 31.3699 69.12Z" fill="#020063"/>
</svg>
