<svg width="24" height="39" viewBox="0 0 24 39" fill="none" xmlns="http://www.w3.org/2000/svg">
<path d="M12 24V30M15 27H9M21 27C21 28.1819 20.7672 29.3522 20.3149 30.4442C19.8626 31.5361 19.1997 32.5282 18.364 33.364C17.5282 34.1997 16.5361 34.8626 15.4442 35.3149C14.3522 35.7672 13.1819 36 12 36C10.8181 36 9.64778 35.7672 8.55585 35.3149C7.46392 34.8626 6.47177 34.1997 5.63604 33.364C4.80031 32.5282 4.13738 31.5361 3.68508 30.4442C3.23279 29.3522 3 28.1819 3 27C3 24.6131 3.94821 22.3239 5.63604 20.636C7.32387 18.9482 9.61305 18 12 18C14.3869 18 16.6761 18.9482 18.364 20.636C20.0518 22.3239 21 24.6131 21 27Z" stroke="black" stroke-width="1.5" stroke-linecap="round" stroke-linejoin="round"/>
<circle cx="20" cy="11" r="4" fill="#080808"/>
<circle cx="6" cy="8" r="3" fill="#080808"/>
<circle cx="17" cy="2" r="2" fill="#080808"/>
</svg>
