<svg width="110" height="135" viewBox="0 0 110 135" fill="none" xmlns="http://www.w3.org/2000/svg">
<path d="M65.3482 40.7188C64.981 40.4532 64.8365 39.9727 65.0005 39.5469C65.77 37.5586 65.3208 35.1719 64.063 33.4297C64.2974 35.0977 64.231 36.8086 63.8521 38.4453C63.7661 38.8242 63.4654 39.1172 63.0865 39.1992C62.7036 39.2812 62.3169 39.1328 62.0787 38.8242C61.3794 37.9023 60.3639 37.207 59.2506 36.8437C60.1099 38.0781 61.0592 39.2499 62.0904 40.3476C62.3716 40.6484 62.4419 41.0859 62.2661 41.457C62.0904 41.8281 61.7036 42.0664 61.3013 42.0312C59.2935 41.9101 57.3365 42.9023 55.9419 44.6679C57.8833 44.3359 59.938 44.4414 61.5903 45.2343C61.6176 45.246 61.6411 45.2617 61.6645 45.2734C62.1333 45.5078 62.5708 45.7851 62.9575 46.1367C64.6645 47.2929 65.9028 49.2656 66.4458 51.6953C66.4653 51.7812 66.481 51.8632 66.5005 51.9492C66.6294 50.4961 66.5396 49.0273 66.231 47.6133C66.1646 47.3086 66.2427 46.9922 66.4419 46.7539C66.6411 46.5156 66.9341 46.3945 67.2505 46.3984C68.5161 46.4531 69.7193 46.9805 70.6567 47.8086C70.5825 47.0703 70.4223 46.3398 70.1801 45.6328C69.8794 44.75 69.2387 43.9062 68.6762 44.0117C68.2153 44.0977 67.7622 43.8594 67.5746 43.4336C67.3871 43.0078 67.52 42.5078 67.8911 42.2305C69.4263 41.086 70.9263 39.8672 72.3677 38.5977C70.2779 38.6329 68.1841 39.3672 66.5786 40.6875C66.227 40.9766 65.727 40.9922 65.3559 40.7266L65.3482 40.7188Z" fill="#AD08FF"/>
<path d="M46.012 43.9531C47.1956 43.3047 48.055 42.2695 48.3675 41.1211C48.6019 40.2617 48.555 39.1953 48.2308 38.1211C47.6136 36.0664 45.6683 34.6953 43.473 34.6953C43.2777 34.6953 43.0824 34.707 42.8871 34.7266L42.4222 34.7773C41.6527 34.8633 40.973 35.0898 40.4027 35.4531C39.6684 35.918 39.1566 36.4726 38.848 36.8047C38.602 37.0743 38.4301 37.3907 38.352 37.7305C37.7035 40.4883 39.4418 43.6211 42.0747 44.4375C43.3208 44.8242 44.7544 44.6484 46.0161 43.957L46.012 43.9531Z" fill="#AD08FF"/>
<path d="M61.6449 47.6519C61.5239 47.5386 61.3754 47.4526 61.2387 47.355C55.6957 52.0894 52.4418 60.492 53.309 67.867C54.3246 68.0428 55.3559 68.1404 56.3871 68.1638C56.3129 66.6208 56.3754 65.0271 56.5433 63.4138V63.406C56.5433 63.4021 56.5473 63.3982 56.5473 63.3904C57.1215 57.9334 59.02 52.2964 61.8832 47.8284C61.848 47.805 61.8167 47.7737 61.7816 47.7542C61.7347 47.7229 61.6878 47.6878 61.6449 47.6487L61.6449 47.6519Z" fill="#AD08FF"/>
<path d="M60.094 86.7928C55.9026 87.0701 52.0706 87.1404 48.125 87.0115C48.1445 87.7146 48.1914 88.4334 48.2344 89.1326C48.2656 89.6092 48.293 90.0662 48.3125 90.5037C49.8633 90.4842 51.4023 90.4686 52.9141 90.4568C56.043 90.4295 59.0899 90.4022 62.1797 90.3397C62.1641 89.7654 62.1524 89.1952 62.1328 88.617C62.1094 87.9998 62.086 87.3826 62.0703 86.7693C61.3125 86.7458 60.6719 86.7536 60.0976 86.7888L60.094 86.7928Z" fill="#AD08FF"/>
<path d="M62.578 99.1211C65.5116 98.9414 68.0546 98.9297 71.8983 99.3867C71.8944 96.8984 71.8904 94.4453 71.8826 91.9961C68.9373 92.1523 66.1209 92.25 63.3592 92.3164C63.3085 92.3242 63.2616 92.3477 63.2069 92.3477H63.203C63.16 92.3477 63.1249 92.3281 63.0819 92.3242C59.6874 92.4023 56.3553 92.4297 52.9299 92.4609C48.3361 92.5 43.5861 92.5508 38.5669 92.7188C38.5786 94.9532 38.563 97.1132 38.5317 99.1562C46.5161 99.6211 54.6017 99.6094 62.5827 99.1211L62.578 99.1211Z" fill="#AD08FF"/>
<path d="M64.0509 85.8092C64.0548 86.7077 64.0899 87.6256 64.1251 88.5397C64.1485 89.1296 64.1602 89.7077 64.1759 90.2936C66.6759 90.2272 69.2267 90.1335 71.879 89.9929C71.875 89.3874 71.875 88.778 71.875 88.1725C71.8633 84.442 71.8516 80.7156 71.8477 76.9146C60.6177 77.9263 49.2067 78.4106 37.9497 78.3637C38.3286 82.6059 38.4927 86.7661 38.5474 90.7188C41.2076 90.6289 43.7935 90.5742 46.313 90.5352C46.2934 90.1328 46.2661 89.707 46.2388 89.2618C46.1684 88.172 46.0981 87.047 46.1177 85.9571C46.1216 85.6875 46.2349 85.4336 46.4302 85.2461C46.6255 85.0625 46.8872 84.9571 47.1567 84.9766C51.4028 85.1524 55.4692 85.0938 59.9577 84.7969C60.8405 84.7383 61.8405 84.7461 63.1061 84.8164C63.6335 84.8477 64.0475 85.2813 64.0475 85.8086L64.0509 85.8092Z" fill="#AD08FF"/>
<path d="M80.816 21.1679C78.8746 21.1172 76.9332 21.0625 74.9957 21.0078C60.0117 20.5937 44.5307 20.164 29.1797 20.9101L29.5156 22.2499C30.9726 30.4882 32.2578 39.7729 33.5078 48.7539C34.8086 58.1328 36.1523 67.8199 37.6875 76.3589C49.0785 76.4214 60.6095 75.9214 71.9645 74.8901L72.1325 73.6245C73.5075 56.9445 76.1559 40.1755 80.0036 23.8355C80.0153 23.7848 80.277 22.5738 80.82 21.1636L80.816 21.1679ZM36.402 37.2699C36.5621 36.5942 36.8981 35.9652 37.3707 35.4535C37.7301 35.0668 38.3785 34.3676 39.3316 33.7621C40.1637 33.2348 41.1285 32.9067 42.2027 32.7895L42.6676 32.7387C46.0504 32.3715 49.1988 34.3832 50.1481 37.5473C50.5778 38.977 50.6285 40.434 50.2965 41.6489C49.8395 43.3208 48.6285 44.7973 46.9723 45.7075C45.8551 46.3208 44.6246 46.6333 43.4215 46.6333C42.7575 46.6333 42.1012 46.5356 41.4762 46.3442C37.8317 45.2153 35.5074 41.0589 36.402 37.2699ZM75.363 38.5551C73.8318 39.9965 72.2224 41.3832 70.5622 42.6918C71.2419 43.2583 71.7575 44.102 72.0622 44.9887C72.7536 47.0121 72.8864 49.1919 72.4411 51.2857C72.3434 51.7466 71.9333 52.0786 71.4645 52.0786H71.4567C70.9802 52.0747 70.5739 51.7349 70.4841 51.27C70.2692 50.1645 69.4568 49.2036 68.4333 48.7231C68.8239 52.0239 68.1989 55.4731 66.6442 58.3989C66.4684 58.731 66.1246 58.9302 65.7614 58.9302C65.6754 58.9302 65.5895 58.9185 65.5035 58.895C65.0543 58.7739 64.7457 58.3599 64.7614 57.895C64.8278 55.9731 64.902 53.9848 64.484 52.1333C64.2418 51.0513 63.8356 50.0981 63.3004 49.313C60.9098 53.1802 59.277 57.9185 58.6442 62.575C60.2926 62.8758 62.3044 63.6648 63.5739 64.5672C63.8122 64.7391 64.2692 65.0321 64.7614 65.3485C65.988 66.1375 66.5934 66.536 66.8512 66.786C67.2379 67.1571 67.445 67.6102 67.5778 67.9657C67.8942 68.7899 68.0622 69.6532 68.0778 70.536C68.0895 71.0868 67.6481 71.5438 67.0973 71.5555H67.0778C66.5348 71.5555 66.0895 71.118 66.0778 70.575C66.0661 69.9266 65.941 69.2898 65.7106 68.6844C65.652 68.536 65.5661 68.3289 65.4684 68.2313C65.2848 68.0672 64.277 67.4188 63.6793 67.0321C63.1558 66.6961 62.6676 66.3797 62.4137 66.2001C61.4176 65.493 59.7614 64.8368 58.4371 64.5712C58.3238 66.1103 58.3199 67.6259 58.4449 69.0829C58.4683 69.3563 58.3785 69.6297 58.1949 69.8368C58.0113 70.0438 57.7496 70.161 57.4722 70.1688C57.2769 70.1727 57.0816 70.1766 56.8902 70.1766C55.3199 70.1766 53.7457 70.0164 52.2066 69.7C51.7965 69.6141 51.484 69.286 51.4215 68.8719C51.1793 67.3055 51.1168 65.6922 51.2105 64.0633C50.3941 64.2 49.6441 64.5008 48.8121 64.8407L48.3941 65.0086C45.5738 66.1336 43.8082 68.907 43.0035 70.4578C42.8239 70.8016 42.4762 70.9969 42.1129 70.9969C41.9567 70.9969 41.8004 70.9617 41.6559 70.8836C41.1637 70.6297 40.9723 70.0281 41.2262 69.5359C42.1559 67.7351 44.2301 64.5164 47.652 63.1492L48.0583 62.9852C49.0856 62.5672 50.1481 62.1648 51.4177 62.0398C52.2302 56.2078 55.031 50.4458 59.1247 46.5598C57.5192 46.3294 55.6599 46.638 54.1716 47.2083C53.7966 47.3489 53.3708 47.2552 53.0896 46.9661C52.8122 46.677 52.7341 46.2434 52.8942 45.8763C54.1989 42.8802 56.5817 40.8138 59.2848 40.2083C58.2067 38.9075 57.2262 37.5286 56.359 36.0794C56.1794 35.7747 56.1715 35.3997 56.3356 35.0911C56.5036 34.7786 56.82 34.5794 57.1754 34.5677C58.9566 34.4895 60.7418 35.0716 62.1637 36.1341C62.277 34.3958 61.9997 32.6263 61.3552 31.013C61.2028 30.6302 61.3005 30.1888 61.6012 29.9075C61.9059 29.6262 62.3473 29.5598 62.7184 29.7395C65.695 31.1926 67.4996 34.5403 67.3629 37.802C69.6715 36.6575 72.3863 36.2942 74.8863 36.8528C75.2457 36.9348 75.5348 37.2083 75.6324 37.5637C75.7301 37.9192 75.6246 38.302 75.3551 38.5559L75.363 38.5551ZM75.0231 26.2311C70.5543 26.3679 66.0426 26.4069 61.5621 26.4069C58.2262 26.4069 54.9059 26.3835 51.6324 26.364C46.773 26.3327 41.7496 26.2976 36.8274 26.3405H36.8196C36.2689 26.3405 35.8235 25.8991 35.8196 25.3483C35.8157 24.7976 36.2571 24.3444 36.8118 24.3405C41.7493 24.3015 46.7806 24.3327 51.6478 24.364C59.2962 24.4148 67.2068 24.4694 74.9598 24.2351C75.4911 24.1999 75.9715 24.653 75.991 25.2038C76.0066 25.7546 75.5731 26.2155 75.0223 26.235L75.0231 26.2311Z" fill="#AD08FF"/>
</svg>
